<svg viewBox="0 0 776 193" xmlns="http://www.w3.org/2000/svg" fill-rule="evenodd" clip-rule="evenodd" stroke-linejoin="round" stroke-miterlimit="1.414"><g fill="#fff" fill-rule="nonzero"><path d="M82.829 154.19c-1.916-8.747-12.406-13.79-23.43-11.25-11.024 2.552-18.397 11.733-16.477 20.49 1.933 8.766 12.423 13.802 23.44 11.247 11.01-2.555 18.393-11.71 16.468-20.487h-.001zm3.568 19.414c-6.278 1.437-10.48 6.664-9.373 11.654 1.09 4.978 7.066 7.856 13.344 6.405 6.278-1.438 10.47-6.673 9.37-11.664-1.096-4.98-7.074-7.867-13.34-6.396l-.001.001zm54.566-147.762C135.493 10.93 117.829 0 96.86 0 81.48 0 67.893 5.87 59.577 14.89c-.396-.01-.772-.032-1.16-.032C26.147 14.858 0 37.068 0 64.483c0 16.305 9.262 30.782 23.566 39.826 2.008 17.137 18.89 30.525 39.42 30.525 4.94 0 9.674-.795 14.036-2.206 7.914 4.882 17.54 7.77 27.94 7.77 23.62 0 43.34-14.88 47.767-34.598 14.604-6.96 24.654-21.41 24.654-38.136 0-20.886-15.715-38.25-36.422-41.824l.002.002zm-99.704 61.32c-1.314.353-2.94.515-4.877.515-2.022 0-3.69-.236-5.027-.714-1.33-.472-2.383-1.137-3.165-1.998-.773-.843-1.33-1.885-1.654-3.075-.32-1.204-.48-2.547-.48-4.028V66.335h-4.338V58.85h4.337v-8.152h10.21v8.152h6.22v7.485h-6.22v9.246c0 1.364.178 2.354.543 2.944.36.578.998.88 1.91.88.837 0 1.572-.114 2.2-.313.628-.214 1.09-.395 1.4-.546l1.996 7.587c-.73.35-1.744.7-3.054 1.03l-.001-.001zm33.23-.167H64.225V69.693c0-1.138-.227-1.938-.66-2.416-.435-.482-1.153-.72-2.136-.72-.992 0-1.83.297-2.517.882-.686.595-1.174 1.056-1.48 1.405v18.15h-10.27V45.907h10.27v15.854c.376-.378.838-.774 1.363-1.203a11.737 11.737 0 0 1 1.834-1.16c.684-.365 1.466-.66 2.336-.897.874-.224 1.86-.33 2.966-.33 1.598 0 2.94.228 4.03.706 1.077.476 1.958 1.13 2.618 1.963.67.843 1.152 1.83 1.46 2.983.3 1.133.45 2.365.45 3.702v19.47zm15.095 0H79.196V58.85h10.388v28.145zm-1.152-32.42c-1.03 1.073-2.377 1.604-4.04 1.604-1.665 0-3.017-.53-4.036-1.604-1.04-1.057-1.556-2.324-1.556-3.756 0-1.46.515-2.7 1.556-3.75 1.02-1.048 2.37-1.573 4.036-1.573 1.663 0 3.01.525 4.04 1.572 1.024 1.05 1.54 2.29 1.54 3.75 0 1.432-.516 2.7-1.54 3.756v.001zm33.24 32.42h-10.271V69.693c0-1.138-.214-1.938-.653-2.416-.44-.482-1.154-.72-2.142-.72s-1.824.297-2.506.882c-.688.595-1.18 1.056-1.493 1.405v18.15H94.342V58.847h6.3c3.28 0 3.74 3.21 3.74 3.21.418-.464.896-.924 1.427-1.38a9.872 9.872 0 0 1 1.89-1.252c.717-.385 1.523-.686 2.417-.922.897-.224 1.895-.33 2.995-.33 1.604 0 2.936.228 4.02.706 1.09.477 1.965 1.132 2.63 1.964.664.843 1.147 1.83 1.46 2.983.3 1.133.45 2.365.45 3.702v19.465l.001.002zm33.227 0h-11.7l-6.502-11.31v11.31h-10.276V45.91h10.275v22.87l7.244-9.932h10.957l-9.472 12.674 9.472 15.473h.002zM449.731 97.69c-4.667 0-8.714-.732-12.125-2.197-3.41-1.463-6.235-3.412-8.464-5.84-2.233-2.446-3.898-5.265-5.01-8.473a30.943 30.943 0 0 1-1.65-10.052c0-3.5.564-6.847 1.694-10.056 1.13-3.206 2.836-6.023 5.12-8.46 2.28-2.443 5.16-4.39 8.623-5.855 3.46-1.46 7.504-2.19 12.12-2.19 3.39 0 6.402.362 9.05 1.076 2.638.718 5.018 1.777 7.123 3.158l-6.316 10.62a22.75 22.75 0 0 0-4.35-2c-1.515-.512-3.427-.772-5.737-.772-1.896 0-3.577.347-5.04 1.044a10.346 10.346 0 0 0-3.697 2.883c-.998 1.227-1.754 2.703-2.266 4.42-.517 1.723-.775 3.606-.775 5.664 0 2.163.247 4.154.734 5.965.486 1.826 1.23 3.398 2.23 4.704a10.651 10.651 0 0 0 3.736 3.08c1.485.74 3.23 1.116 5.232 1.116 2.77 0 4.978-.396 6.62-1.195 1.646-.793 3.052-1.6 4.235-2.416l5.848 10.15c-.664.572-1.562 1.185-2.69 1.855a26.7 26.7 0 0 1-3.886 1.847c-1.466.562-3.085 1.023-4.854 1.39a27.834 27.834 0 0 1-5.505.534zm39.186 0c-3.388 0-6.337-.533-8.854-1.614-2.517-1.082-4.604-2.523-6.273-4.347a18.118 18.118 0 0 1-3.737-6.318 22.806 22.806 0 0 1-1.228-7.438c0-2.62.41-5.13 1.228-7.547a18.333 18.333 0 0 1 3.736-6.392c1.67-1.845 3.756-3.33 6.272-4.46 2.517-1.126 5.466-1.694 8.854-1.694 3.39 0 6.338.533 8.854 1.622 2.51 1.073 4.6 2.515 6.27 4.304a17.52 17.52 0 0 1 3.74 6.24c.816 2.357 1.224 4.854 1.224 7.467 0 2.576-.407 5.064-1.225 7.48-.823 2.4-2.06 4.55-3.697 6.425-1.647 1.875-3.738 3.39-6.278 4.542-2.536 1.154-5.5 1.73-8.89 1.73h.004zm.23-10.007c2.207 0 3.62-.835 4.232-2.5.622-1.674.927-4.068.927-7.208 0-3.174-.37-5.677-1.117-7.512-.742-1.817-2.222-2.734-4.424-2.734-2.207 0-3.648.853-4.312 2.547-.668 1.694-1 4.106-1 7.237 0 3.138.395 5.62 1.188 7.438.8 1.822 2.3 2.73 4.507 2.73l-.001.002zm39.111-24.648c.51-.612 1.11-1.22 1.802-1.803.7-.592 1.496-1.147 2.39-1.657.896-.513 1.914-.924 3.042-1.233 1.13-.31 2.438-.46 3.927-.46 2.616 0 4.708.496 6.275 1.496 1.562 1.003 2.7 2.402 3.422 4.196 1.698-1.945 3.454-3.387 5.27-4.31 1.824-.923 4.096-1.383 6.817-1.383 2.052 0 3.786.325 5.196.967 1.413.633 2.54 1.526 3.386 2.65.846 1.124 1.45 2.467 1.805 4.003.365 1.543.548 3.21.548 5.007V96.76h-13.864V73.437c0-1.546-.224-2.633-.688-3.276-.46-.642-1.288-.958-2.46-.958-1.08 0-1.992.316-2.734.96a15.52 15.52 0 0 0-2.037 2.12v24.48h-13.858V73.439c0-1.546-.27-2.633-.816-3.276-.536-.643-1.314-.96-2.343-.96-1.335 0-2.364.368-3.078 1.118a71.3 71.3 0 0 0-1.695 1.805v24.638h-13.854v-37.96h8.51c4.812 0 5.037 4.232 5.037 4.232v-.001zm51.58-4.232h13.544v3.85c1.08-1.335 2.417-2.465 4.007-3.388 1.593-.923 3.636-1.383 6.157-1.383 4.925 0 8.725 1.707 11.396 5.117 2.664 3.41 4.006 8.33 4.006 14.75 0 3.025-.423 5.773-1.27 8.24-.854 2.466-2.028 4.557-3.543 6.272a15.806 15.806 0 0 1-5.426 4.002c-2.108.95-4.416 1.427-6.932 1.427-2.056 0-3.75-.244-5.08-.732-1.336-.484-2.333-.982-3.003-1.5v18.16H579.84V58.803h-.002zm18.473 28.49c1.946 0 3.44-.763 4.468-2.3 1.023-1.55 1.532-3.988 1.532-7.32 0-3.14-.466-5.44-1.42-6.935-.95-1.487-2.295-2.236-4.042-2.236-.718 0-1.345.1-1.882.31-.54.21-1.024.462-1.465.772-.433.31-.81.613-1.12.924a7.537 7.537 0 0 0-.688.77v14.17c.516.462 1.132.89 1.853 1.27.708.388 1.634.576 2.765.576l-.001-.001zm36.257 10.397c-1.647 0-3.177-.228-4.615-.69-1.438-.462-2.692-1.153-3.768-2.077-1.084-.923-1.928-2.084-2.542-3.47-.618-1.383-.93-2.997-.93-4.844 0-2.416.556-4.492 1.662-6.248 1.104-1.737 2.58-3.16 4.424-4.264 1.85-1.11 3.987-1.92 6.427-2.43a37.205 37.205 0 0 1 7.657-.773h1.08V71.74c0-1.08-.337-1.896-1.002-2.467-.664-.563-2.032-.845-4.078-.845-1.128 0-2.2.125-3.194.384-1.003.26-1.91.547-2.736.887-.822.33-1.524.69-2.117 1.076a34.61 34.61 0 0 1-1.42.893l-5.548-8.174c.62-.562 1.438-1.16 2.47-1.81 1.02-.636 2.24-1.247 3.657-1.803 1.41-.57 2.997-1.036 4.767-1.426 1.776-.39 3.742-.576 5.89-.576 6.006 0 10.36 1.146 13.05 3.423 2.694 2.285 4.05 6.194 4.05 11.75v10.55c0 3.077.12 5.68.382 7.815.254 2.134.533 3.916.844 5.343h-13.547c-.21-.46-.38-1.052-.5-1.767a20.887 20.887 0 0 1-.272-1.924 11.67 11.67 0 0 1-1.548 1.575c-.608.543-1.343 1.04-2.188 1.502-.854.462-1.797.838-2.85 1.117-1.047.283-2.218.427-3.505.427zm4.777-9.473c1.184 0 2.13-.187 2.853-.57.713-.39 1.31-.784 1.766-1.196v-5.545h-1.08c-2.2 0-3.98.362-5.31 1.083-1.34.714-2.002 1.817-2.002 3.317 0 1.937 1.26 2.912 3.774 2.912l-.001-.001zm39.412-25.104a24.503 24.503 0 0 1 1.922-1.853 13.665 13.665 0 0 1 2.542-1.686 15.1 15.1 0 0 1 3.27-1.233c1.207-.308 2.558-.46 4.046-.46 2.158 0 3.965.325 5.422.967 1.475.633 2.646 1.526 3.55 2.65.903 1.124 1.552 2.467 1.957 4.003.417 1.543.626 3.21.626 5.007V96.76h-13.867V73.437c0-1.546-.293-2.633-.88-3.276-.595-.642-1.556-.958-2.887-.958-1.335 0-2.47.396-3.387 1.19-.925.793-1.592 1.428-2.007 1.89v24.48h-13.853v-37.96h8.214c5.052 0 5.332 4.31 5.332 4.31zm34.257 51.82c-2.106 0-3.78-.108-5.043-.348-1.26-.23-2.12-.415-2.575-.57l2.006-10.778c.257.1.703.21 1.346.347.637.123 1.627.195 2.96.195 1.332 0 2.448-.13 3.355-.393.895-.258 1.62-.612 2.186-1.08a5.634 5.634 0 0 0 1.388-1.615c.365-.614.672-1.283.93-2.005l1.154-3.15-14.164-36.733H721.1l6.775 21.026h.31l5.616-21.026h14.09l-15.314 41.196c-.98 2.617-2.026 4.86-3.16 6.742-1.135 1.86-2.436 3.425-3.925 4.657-1.487 1.23-3.242 2.12-5.273 2.688-2.03.562-4.428.845-7.204.845l-.001.002zM221.864 57.418h-13.78V45.492h42.26v11.926h-13.777V96.77h-14.702V57.418h-.001zm33.175-16.082h13.858v21.398a19.717 19.717 0 0 1 1.853-1.62 15.768 15.768 0 0 1 2.46-1.577c.922-.49 1.975-.89 3.156-1.196 1.183-.305 2.51-.457 4-.457 2.158 0 3.967.32 5.425.963 1.47.64 2.654 1.52 3.548 2.65.895 1.132 1.55 2.46 1.96 4.005.41 1.544.62 3.218.62 5.008v26.262h-13.857V73.44c0-1.538-.294-2.633-.886-3.276-.592-.635-1.55-.96-2.885-.96-1.342 0-2.466.397-3.39 1.19-.923.8-1.594 1.422-2.004 1.892v24.486h-13.858V41.336zm52.349 13.858c-2.236 0-4.054-.718-5.452-2.156-1.384-1.438-2.076-3.13-2.076-5.082 0-1.948.69-3.63 2.075-5.046 1.398-1.414 3.216-2.12 5.452-2.12 2.24 0 4.066.706 5.45 2.12 1.392 1.415 2.09 3.098 2.09 5.046 0 1.952-.698 3.644-2.09 5.082-1.384 1.44-3.21 2.156-5.45 2.156h.001zm-7.003 3.607h14.01v37.97h-14.01v-37.97zm67.201-17.465h13.87v30.867l9.773-13.402h14.786l-12.78 17.105 12.78 20.864h-15.788l-8.77-15.245v15.244h-13.872V41.335l.001.001zm-30.983 21.811c.57-.612 1.205-1.23 1.926-1.85.72-.615 1.564-1.174 2.538-1.69a15.12 15.12 0 0 1 3.272-1.23c1.197-.307 2.554-.462 4.047-.462 2.147 0 3.956.325 5.42.966 1.465.635 2.647 1.523 3.55 2.652.894 1.127 1.55 2.466 1.962 4.005.41 1.536.61 3.21.61 5.01v26.25h-13.857v-23.33c0-1.538-.295-2.626-.88-3.27-.6-.642-1.558-.968-2.884-.968-1.342 0-2.473.405-3.39 1.197-.922.794-1.6 1.43-2.012 1.892v24.478h-13.844V58.841h8.212c5.057 0 5.33 4.305 5.33 4.305v.001zM756.606 50.322h-2.797v-2.04h8.113v2.04h-2.81v8.25h-2.505v-8.25h-.001zm7.19-2.04h2.427l1.932 6.136c.217.71.417 1.545.48 1.73h.03c.06-.186.277-1.02.494-1.73l2.01-6.136h2.426l1.406 10.29h-2.55l-.572-4.85c-.093-.758-.17-1.36-.17-1.516h-.03c-.047.17-.2.79-.42 1.484l-1.514 4.882h-2.456l-1.515-4.882c-.187-.634-.355-1.33-.402-1.484h-.03c0 .17-.046.85-.123 1.53l-.603 4.836h-2.242l1.423-10.29h-.001z"/></g></svg>